<svg width="77" height="18" viewBox="0 0 77 18" fill="none" xmlns="http://www.w3.org/2000/svg">
<path d="M16.6165 5.23734V3.91489H24.4964V5.23734H21.3196V14.0967H19.7884V5.23734H16.6165ZM27.3017 14.2657C26.8178 14.2657 26.3803 14.1763 25.9892 13.9973C25.5981 13.815 25.2882 13.5515 25.0595 13.2068C24.8341 12.8621 24.7214 12.4395 24.7214 11.939C24.7214 11.5082 24.8043 11.1535 24.97 10.8751C25.1357 10.5967 25.3594 10.3763 25.6412 10.2139C25.9229 10.0515 26.2377 9.92886 26.5858 9.846C26.9338 9.76314 27.2884 9.70017 27.6497 9.65708C28.1071 9.60405 28.4783 9.56096 28.7633 9.52782C29.0484 9.49136 29.2555 9.43336 29.3848 9.35381C29.514 9.27427 29.5787 9.14501 29.5787 8.96603V8.93123C29.5787 8.49704 29.456 8.16063 29.2108 7.92199C28.9688 7.68336 28.6075 7.56404 28.127 7.56404C27.6265 7.56404 27.2321 7.67507 26.9437 7.89714C26.6587 8.11589 26.4615 8.35949 26.3521 8.62796L24.9551 8.30978C25.1208 7.84576 25.3627 7.47124 25.6809 7.1862C26.0024 6.89785 26.372 6.68904 26.7896 6.55978C27.2072 6.4272 27.6464 6.36091 28.1071 6.36091C28.412 6.36091 28.7351 6.39737 29.0765 6.47029C29.4212 6.53989 29.7427 6.66915 30.041 6.85807C30.3426 7.04699 30.5895 7.31712 30.7818 7.66844C30.974 8.01645 31.0701 8.46887 31.0701 9.02569V14.0967H29.6184V13.0527H29.5588C29.4627 13.2449 29.3185 13.4338 29.1262 13.6194C28.934 13.805 28.6871 13.9592 28.3855 14.0818C28.0839 14.2044 27.7226 14.2657 27.3017 14.2657ZM27.6248 13.0726C28.0358 13.0726 28.3871 12.9914 28.6788 12.829C28.9738 12.6665 29.1975 12.4544 29.35 12.1926C29.5057 11.9274 29.5836 11.6441 29.5836 11.3424V10.3581C29.5306 10.4111 29.4279 10.4608 29.2754 10.5072C29.1262 10.5503 28.9556 10.5884 28.7633 10.6216C28.5711 10.6514 28.3838 10.6796 28.2015 10.7061C28.0192 10.7293 27.8668 10.7492 27.7441 10.7657C27.4558 10.8022 27.1923 10.8635 26.9537 10.9497C26.7183 11.0359 26.5294 11.1602 26.3869 11.3226C26.2477 11.4817 26.1781 11.6938 26.1781 11.9589C26.1781 12.3268 26.314 12.6052 26.5858 12.7942C26.8575 12.9798 27.2039 13.0726 27.6248 13.0726ZM38.7724 8.32469L37.4251 8.56333C37.3687 8.39098 37.2792 8.22692 37.1566 8.07114C37.0373 7.91537 36.8749 7.78776 36.6694 7.68833C36.4639 7.5889 36.207 7.53918 35.8988 7.53918C35.4779 7.53918 35.1265 7.63364 34.8448 7.82256C34.5631 8.00817 34.4222 8.24846 34.4222 8.54344C34.4222 8.79865 34.5167 9.00414 34.7056 9.15992C34.8945 9.3157 35.1995 9.4433 35.6204 9.54273L36.8335 9.82114C37.5361 9.98355 38.0598 10.2338 38.4045 10.5719C38.7492 10.9099 38.9215 11.3491 38.9215 11.8893C38.9215 12.3467 38.7889 12.7544 38.5238 13.1123C38.262 13.467 37.8957 13.7454 37.4251 13.9476C36.9577 14.1497 36.4158 14.2508 35.7994 14.2508C34.9442 14.2508 34.2466 14.0685 33.7063 13.704C33.1661 13.3361 32.8346 12.814 32.712 12.1379L34.1488 11.9192C34.2383 12.2937 34.4222 12.5771 34.7006 12.7693C34.979 12.9582 35.342 13.0527 35.7894 13.0527C36.2766 13.0527 36.6661 12.9516 36.9577 12.7494C37.2494 12.5439 37.3952 12.2937 37.3952 11.9987C37.3952 11.7601 37.3058 11.5595 37.1268 11.3971C36.9511 11.2347 36.681 11.1121 36.3164 11.0292L35.0238 10.7459C34.3112 10.5835 33.7842 10.3249 33.4428 9.97029C33.1048 9.61565 32.9357 9.16655 32.9357 8.62299C32.9357 8.17223 33.0617 7.77782 33.3136 7.43975C33.5655 7.10168 33.9135 6.83819 34.3576 6.64927C34.8017 6.45703 35.3105 6.36091 35.8839 6.36091C36.7092 6.36091 37.3588 6.53989 37.8327 6.89785C38.3067 7.25249 38.6199 7.7281 38.7724 8.32469ZM42.0424 9.56262V14.0967H40.5559V3.91489H42.0225V7.70324H42.117C42.296 7.29226 42.5694 6.96579 42.9373 6.72384C43.3052 6.48189 43.7858 6.36091 44.3791 6.36091C44.9028 6.36091 45.3601 6.46863 45.7512 6.68407C46.1457 6.8995 46.4506 7.221 46.666 7.64856C46.8848 8.0728 46.9941 8.6031 46.9941 9.23947V14.0967H45.5076V9.41844C45.5076 8.85831 45.3635 8.42412 45.0751 8.11589C44.7868 7.80433 44.3857 7.64856 43.872 7.64856C43.5207 7.64856 43.2058 7.72313 42.9274 7.87228C42.6523 8.02143 42.4352 8.24018 42.2761 8.52853C42.1203 8.81357 42.0424 9.15826 42.0424 9.56262ZM50.345 11.5065L50.335 9.69188H50.5936L53.6362 6.46035H55.416L51.9458 10.1393H51.7122L50.345 11.5065ZM48.9778 14.0967V3.91489H50.4643V14.0967H48.9778ZM53.8002 14.0967L51.0659 10.4674L52.09 9.42839L55.6248 14.0967H53.8002ZM59.7475 14.2508C58.9951 14.2508 58.3472 14.0901 57.8036 13.7686C57.2634 13.4438 56.8458 12.988 56.5508 12.4014C56.2591 11.8114 56.1133 11.1204 56.1133 10.3282C56.1133 9.54605 56.2591 8.85665 56.5508 8.26006C56.8458 7.66347 57.2567 7.1978 57.7837 6.86304C58.314 6.52829 58.9338 6.36091 59.6431 6.36091C60.074 6.36091 60.4916 6.43217 60.896 6.57469C61.3003 6.71721 61.6632 6.94093 61.9847 7.24586C62.3062 7.55078 62.5598 7.94685 62.7454 8.43407C62.931 8.91797 63.0238 9.50627 63.0238 10.199V10.726H56.9535V9.61234H61.5671C61.5671 9.22124 61.4876 8.87488 61.3285 8.57327C61.1694 8.26835 60.9457 8.02805 60.6573 7.85239C60.3723 7.67673 60.0375 7.5889 59.6531 7.5889C59.2354 7.5889 58.8709 7.69164 58.5593 7.89714C58.2511 8.09931 58.0124 8.36447 57.8434 8.69259C57.6777 9.0174 57.5948 9.37038 57.5948 9.75154V10.6216C57.5948 11.132 57.6843 11.5662 57.8633 11.9241C58.0456 12.2821 58.2991 12.5555 58.6239 12.7444C58.9487 12.93 59.3282 13.0228 59.7624 13.0228C60.0442 13.0228 60.301 12.9831 60.533 12.9035C60.765 12.8207 60.9656 12.698 61.1346 12.5356C61.3036 12.3732 61.4329 12.1727 61.5224 11.9341L62.9293 12.1876C62.8166 12.6019 62.6145 12.9648 62.3228 13.2764C62.0344 13.5846 61.6715 13.8249 61.234 13.9973C60.7998 14.1663 60.3043 14.2508 59.7475 14.2508ZM66.1596 9.56262V14.0967H64.6731V6.46035H66.1V7.70324H66.1944C66.3701 7.29889 66.6452 6.97408 67.0197 6.72881C67.3975 6.48355 67.8732 6.36091 68.4466 6.36091C68.9669 6.36091 69.4226 6.47029 69.8137 6.68904C70.2048 6.90448 70.5081 7.22597 70.7235 7.65353C70.939 8.08109 71.0467 8.60973 71.0467 9.23947V14.0967H69.5602V9.41844C69.5602 8.86494 69.416 8.43241 69.1277 8.12086C68.8393 7.80599 68.4432 7.64856 67.9395 7.64856C67.5948 7.64856 67.2882 7.72313 67.0197 7.87228C66.7546 8.02143 66.5441 8.24018 66.3883 8.52853C66.2359 8.81357 66.1596 9.15826 66.1596 9.56262ZM76.6049 6.46035V7.65353H72.4338V6.46035H76.6049ZM73.5524 4.6308H75.0389V11.8545C75.0389 12.1429 75.082 12.36 75.1681 12.5058C75.2543 12.6483 75.3654 12.7461 75.5012 12.7991C75.6404 12.8488 75.7913 12.8737 75.9537 12.8737C76.073 12.8737 76.1774 12.8654 76.2669 12.8488C76.3564 12.8323 76.426 12.819 76.4757 12.8091L76.7441 14.0371C76.658 14.0702 76.5353 14.1033 76.3762 14.1365C76.2172 14.1729 76.0183 14.1928 75.7797 14.1961C75.3886 14.2028 75.024 14.1332 74.6859 13.9873C74.3478 13.8415 74.0744 13.6161 73.8656 13.3112C73.6568 13.0063 73.5524 12.6235 73.5524 12.1628V4.6308Z" fill="black"/>
<path fill-rule="evenodd" clip-rule="evenodd" d="M9 7.2639C9 9.56538 4.5 14.4031 4.5 14.4031C4.5 14.4031 0 9.56538 0 7.2639C0 4.96243 2.01472 3.09671 4.5 3.09671C6.98528 3.09671 9 4.96243 9 7.2639ZM6.54545 7.2639C6.54545 8.31003 5.62967 9.15808 4.5 9.15808C3.37033 9.15808 2.45455 8.31003 2.45455 7.2639C2.45455 6.21777 3.37033 5.36972 4.5 5.36972C5.62967 5.36972 6.54545 6.21777 6.54545 7.2639Z" fill="black"/>
</svg>
